# xmcd CD database file
#
# Track frame offsets:
#	150
#	18059
#	40628
#	61970
#	85857
#	112357
#	126420
#	149082
#	179852
#	200428
#	220860
#	242490
#
# Disc length: 3492 seconds
#
# Revision: 1
# Processed by: cddbd v1.5.2PL0 Copyright (c) Steve Scherf et al.
# Submitted via: CDex 1.70beta2
#
DISCID=b40da20c
DTITLE=Stéphanie laliberté - Stéphanie laliberté
DYEAR=2008
DGENRE=Jazz
TTITLE0=The way you Look Tonight
TTITLE1=La noyée
TTITLE2=Comes Love
TTITLE3=I Love You Porgy
TTITLE4=So in Love
TTITLE5=Moi Je suis là
TTITLE6=They can't take that away from me
TTITLE7=Round Midnight
TTITLE8=Doodlin'
TTITLE9=It`s Alright with me
TTITLE10=You must believe in spring
TTITLE11=Dindi
EXTD=YEAR: 2008
EXTT0=
EXTT1=
EXTT2=
EXTT3=
EXTT4=
EXTT5=
EXTT6=
EXTT7=
EXTT8=
EXTT9=
EXTT10=
EXTT11=
PLAYORDER=
